<svg width="1440" height="1943" viewBox="0 0 1440 1943" fill="none" xmlns="http://www.w3.org/2000/svg">
<g clip-path="url(#clip0_5_127308)">
<path d="M1482.92 1798.73C1349.92 1724.73 1187.92 1619.73 1220.92 1478.73C1253.92 1337.73 1395.12 1262.57 1596.92 1084.73C1808.62 898.17 1811.77 181.72 1688.56 119.2C1590.98 69.6799 1619.31 -62.3301 1289.92 34.7299C1212.95 57.4099 1158.92 67.7299 1084.92 243.73C1007.13 428.73 908.42 410.14 908.42 410.14L884.42 479.14C884.42 479.14 971.56 486.36 1081.92 318.73C1160.92 198.73 1229.55 106.85 1303.92 76.7299C1461.92 12.7299 1594.87 103.84 1664.56 188.2C1769.92 315.73 1686.92 934.73 1426.92 1111.73C1166.92 1288.73 1044.53 1299.03 1026.92 1528.73C1009.31 1758.43 1203.92 1878.73 1203.92 1878.73" fill="#7895A4"/>
<path d="M488.07 1942.71C488.07 1942.71 388.91 1914.73 473.91 1610.73C558.91 1306.73 992.66 1157.84 1174.41 1026.23C1356.16 894.62 1530.41 475.23 1544.41 350.23C1558.41 225.23 1459.41 180.23 1459.41 180.23C1298.41 117.23 1263.91 257.73 1263.91 257.73C1238.4 304.03 1190.18 362.17 1134.91 399.73C1055.41 453.76 967.91 478.73 967.91 478.73L1042.91 479.73C1042.91 479.73 1231.91 410.73 1317.91 283.73C1317.91 283.73 1397.41 181.23 1450.41 253.23C1503.41 325.23 1452.91 636.73 1314.91 741.73C1176.91 846.73 933.91 842.73 743.91 1149.73C553.91 1456.73 476.41 1414.23 250.91 1541.73C63.3 1647.81 -103.63 1742.26 -32.09 1920.73L488.07 1942.71Z" fill="#7895A4"/>
</g>
<defs>
<clipPath id="clip0_5_127308">
<rect width="1819.87" height="1942.71" fill="white" transform="translate(-49)"/>
</clipPath>
</defs>
</svg>
