<svg width="943" height="1870" viewBox="0 0 943 1870" fill="none" xmlns="http://www.w3.org/2000/svg">
<path d="M20.1605 1869.34C-69.6846 1570.59 176.083 1349.34 240.051 1282.34C304.019 1215.34 482.919 1124.74 644.848 1015.34C838.751 884.339 984.678 687.339 1015.66 554.339C1046.65 421.339 1106.62 314.339 1068.64 193.339C1030.66 72.3394 918.182 43.4594 848.746 68.3394C779.311 93.2194 697.072 181.089 659.341 236.839C583.879 348.339 429.456 388.839 453.444 391.839L413.964 373.339C413.964 373.339 472.434 372.839 612.864 249.339C716.542 158.159 735.403 93.9494 792.774 46.3394C921.71 -60.6606 1031.66 43.3394 1092.62 101.339C1184.09 188.349 1158.09 711.839 969.186 896.839C789.116 1073.19 663.339 1120.84 580.381 1192.84C434.164 1319.74 26.8672 1576.17 549.896 1830.34" fill="#C6CDC7"/>
</svg>
