<svg width="761" height="679" viewBox="0 0 761 679" fill="none" xmlns="http://www.w3.org/2000/svg">
<g clip-path="url(#clip0_5_127336)">
<path d="M609.27 147.64L711.49 10.5801C711.49 10.5801 779 62.3301 742.08 90.2101C705.16 118.09 693.33 105.52 693.33 105.52" stroke="#C6CDC7" stroke-width="15" stroke-miterlimit="10"/>
<path d="M587.114 174.862C609.145 173.893 626.439 160.243 625.741 144.374C625.042 128.506 606.616 116.428 584.585 117.398C562.553 118.368 545.26 132.017 545.958 147.886C546.656 163.754 565.083 175.832 587.114 174.862Z" fill="#C6CDC7"/>
<path d="M46.4 605.47L10.72 514L83.51 449.19L107.62 527.87" stroke="#C6CDC7" stroke-width="15" stroke-miterlimit="10"/>
<path d="M60.9413 646.781C67.1541 629.178 60.7618 610.874 46.6638 605.898C32.5658 600.922 16.1005 611.159 9.88773 628.762C3.67491 646.365 10.0672 664.668 24.1652 669.644C38.2632 674.62 54.7284 664.384 60.9413 646.781Z" stroke="#C6CDC7" stroke-width="15" stroke-miterlimit="10"/>
<path d="M139.175 558.717C141.409 537.671 130.933 519.306 115.775 517.697C100.617 516.088 86.5177 531.844 84.2835 552.889C82.0493 573.935 92.526 592.3 107.684 593.909C122.842 595.518 136.941 579.762 139.175 558.717Z" stroke="#C6CDC7" stroke-width="15" stroke-miterlimit="10"/>
</g>
<defs>
<clipPath id="clip0_5_127336">
<rect width="760.62" height="678.44" fill="white"/>
</clipPath>
</defs>
</svg>
